<svg xmlns="http://www.w3.org/2000/svg" version="1.1" xmlns:xlink="http://www.w3.org/1999/xlink" xmlns:svgjs="http://svgjs.dev/svgjs" width="2000" height="848" viewBox="0 0 2000 848"><g transform="matrix(1,0,0,1,-1.2121212121212466,-1.3271246294278853)"><svg viewBox="0 0 396 168" data-background-color="#ffffff" preserveAspectRatio="xMidYMid meet" height="848" width="2000" xmlns="http://www.w3.org/2000/svg" xmlns:xlink="http://www.w3.org/1999/xlink"><g id="tight-bounds" transform="matrix(1,0,0,1,0.2400000000000091,0.2687816055507142)"><svg viewBox="0 0 395.52 167.462437081191" height="167.462437081191" width="395.52"><g><svg viewBox="0 0 395.52 167.462437081191" height="167.462437081191" width="395.52"><g transform="matrix(1,0,0,1,0,124.01170152714616)"><svg viewBox="0 0 395.52 43.45073555404487" height="43.45073555404487" width="395.52"><g id="textblocktransform"><svg viewBox="0 0 395.52 43.45073555404487" height="43.45073555404487" width="395.52" id="textblock"><g><svg viewBox="0 0 395.52 43.45073555404487" height="43.45073555404487" width="395.52"><g transform="matrix(1,0,0,1,0,0)"><svg width="395.52" viewBox="3 -39.65 367.71 40.4" height="43.45073555404487" data-palette-color="#4845d2"><path d="M3-34.55L9.35-34.55 9.35 0 3 0 3-34.55ZM27.55-27.15Q30.4-27.15 32.05-25.1 33.7-23.05 33.7-19.6L33.7-19.6 33.7 0 27.55 0 27.55-18.9Q27.55-20.8 27.02-21.63 26.5-22.45 25.5-22.45L25.5-22.45Q23.4-22.45 21.35-18.5L21.35-18.5 21.35 0 15.2 0 15.2-26.45 20.55-26.45 21-23Q22.35-25.1 23.87-26.13 25.4-27.15 27.55-27.15L27.55-27.15ZM50.4-5L52.55-1.2Q50.1 0.75 46.8 0.75L46.8 0.75Q43.35 0.75 41.55-1.23 39.75-3.2 39.75-6.6L39.75-6.6 39.75-22 36.65-22 36.65-26.45 39.75-26.45 39.75-32.3 45.9-33.05 45.9-26.45 50.9-26.45 50.3-22 45.9-22 45.9-6.6Q45.9-4.2 47.95-4.2L47.95-4.2Q48.6-4.2 49.1-4.38 49.6-4.55 50.4-5L50.4-5ZM73.94-13.85Q73.94-13.4 73.79-11.3L73.79-11.3 60.14-11.3Q60.34-7.2 61.57-5.58 62.79-3.95 65.04-3.95L65.04-3.95Q66.59-3.95 67.84-4.48 69.09-5 70.54-6.15L70.54-6.15 73.09-2.65Q69.59 0.75 64.69 0.75L64.69 0.75Q59.49 0.75 56.72-2.85 53.94-6.45 53.94-13L53.94-13Q53.94-19.55 56.59-23.35 59.24-27.15 64.09-27.15L64.09-27.15Q68.74-27.15 71.34-23.78 73.94-20.4 73.94-13.85L73.94-13.85ZM67.94-15.3L67.94-15.65Q67.94-19.4 67.04-21.13 66.14-22.85 64.14-22.85L64.14-22.85Q62.29-22.85 61.32-21.18 60.34-19.5 60.14-15.3L60.14-15.3 67.94-15.3ZM89.89-27.1Q91.04-27.1 91.94-26.75L91.94-26.75 90.94-20.85Q89.94-21.1 89.09-21.1L89.09-21.1Q87.19-21.1 86.09-19.45 84.99-17.8 84.39-14.55L84.39-14.55 84.39 0 78.24 0 78.24-26.45 83.59-26.45 84.04-21.85Q85.89-27.1 89.89-27.1L89.89-27.1ZM107.19-26.45L113.24-26.45 106.34 0 99.09 0 91.99-26.45 98.34-26.45 102.69-4.95 107.19-26.45ZM116.14-26.45L122.29-26.45 122.29 0 116.14 0 116.14-26.45ZM119.19-39.65Q120.84-39.65 121.86-38.6 122.89-37.55 122.89-35.9L122.89-35.9Q122.89-34.3 121.86-33.25 120.84-32.2 119.19-32.2L119.19-32.2Q117.54-32.2 116.51-33.25 115.49-34.3 115.49-35.9L115.49-35.9Q115.49-37.55 116.51-38.6 117.54-39.65 119.19-39.65L119.19-39.65ZM146.83-13.85Q146.83-13.4 146.68-11.3L146.68-11.3 133.03-11.3Q133.23-7.2 134.46-5.58 135.68-3.95 137.93-3.95L137.93-3.95Q139.48-3.95 140.73-4.48 141.98-5 143.43-6.15L143.43-6.15 145.98-2.65Q142.48 0.75 137.58 0.75L137.58 0.75Q132.38 0.75 129.61-2.85 126.83-6.45 126.83-13L126.83-13Q126.83-19.55 129.48-23.35 132.13-27.15 136.98-27.15L136.98-27.15Q141.63-27.15 144.23-23.78 146.83-20.4 146.83-13.85L146.83-13.85ZM140.83-15.3L140.83-15.65Q140.83-19.4 139.93-21.13 139.03-22.85 137.03-22.85L137.03-22.85Q135.18-22.85 134.21-21.18 133.23-19.5 133.03-15.3L133.03-15.3 140.83-15.3ZM173.18-26.45L178.88-26.45 174.33 0 166.83 0 163.88-20.85 160.98 0 153.53 0 148.88-26.45 154.83-26.45 157.53-4.6 160.88-26.45 167.13-26.45 170.33-4.6 173.18-26.45ZM218.43-34.55L220.63 0 214.58 0 213.98-14.6Q213.68-22.6 213.68-26L213.68-26 213.73-28.6 208.98-3.8 202.98-3.8 198.03-28.65Q198.08-27.15 198.08-24.05L198.08-24.05Q198.08-18.8 197.88-14.4L197.88-14.4 197.33 0 191.38 0 193.58-34.55 201.58-34.55 206.08-10.2 210.28-34.55 218.43-34.55ZM244.27-13.85Q244.27-13.4 244.12-11.3L244.12-11.3 230.47-11.3Q230.67-7.2 231.9-5.58 233.12-3.95 235.37-3.95L235.37-3.95Q236.92-3.95 238.17-4.48 239.42-5 240.87-6.15L240.87-6.15 243.42-2.65Q239.92 0.75 235.02 0.75L235.02 0.75Q229.82 0.75 227.05-2.85 224.27-6.45 224.27-13L224.27-13Q224.27-19.55 226.92-23.35 229.57-27.15 234.42-27.15L234.42-27.15Q239.07-27.15 241.67-23.78 244.27-20.4 244.27-13.85L244.27-13.85ZM238.27-15.3L238.27-15.65Q238.27-19.4 237.37-21.13 236.47-22.85 234.47-22.85L234.47-22.85Q232.62-22.85 231.65-21.18 230.67-19.5 230.47-15.3L230.47-15.3 238.27-15.3ZM260.92-27.15Q263.77-27.15 265.42-25.1 267.07-23.05 267.07-19.6L267.07-19.6 267.07 0 260.92 0 260.92-18.9Q260.92-20.8 260.4-21.63 259.87-22.45 258.87-22.45L258.87-22.45Q256.77-22.45 254.72-18.5L254.72-18.5 254.72 0 248.57 0 248.57-26.45 253.92-26.45 254.37-23Q255.72-25.1 257.25-26.13 258.77-27.15 260.92-27.15L260.92-27.15ZM283.77-5L285.92-1.2Q283.47 0.75 280.17 0.75L280.17 0.75Q276.72 0.75 274.92-1.23 273.12-3.2 273.12-6.6L273.12-6.6 273.12-22 270.02-22 270.02-26.45 273.12-26.45 273.12-32.3 279.27-33.05 279.27-26.45 284.27-26.45 283.67-22 279.27-22 279.27-6.6Q279.27-4.2 281.32-4.2L281.32-4.2Q281.97-4.2 282.47-4.38 282.97-4.55 283.77-5L283.77-5ZM297.87-27.15Q302.87-27.15 305.64-23.65 308.42-20.15 308.42-13.25L308.42-13.25Q308.42-6.65 305.62-2.95 302.82 0.75 297.87 0.75L297.87 0.75Q292.92 0.75 290.12-2.88 287.32-6.5 287.32-13.25L287.32-13.25Q287.32-19.95 290.12-23.55 292.92-27.15 297.87-27.15L297.87-27.15ZM297.87-22.5Q295.72-22.5 294.72-20.38 293.72-18.25 293.72-13.25L293.72-13.25Q293.72-8.2 294.72-6.08 295.72-3.95 297.87-3.95L297.87-3.95Q300.02-3.95 301.02-6.08 302.02-8.2 302.02-13.25L302.02-13.25Q302.02-18.3 301.02-20.4 300.02-22.5 297.87-22.5L297.87-22.5ZM324.61-27.1Q325.76-27.1 326.66-26.75L326.66-26.75 325.66-20.85Q324.66-21.1 323.81-21.1L323.81-21.1Q321.91-21.1 320.81-19.45 319.71-17.8 319.11-14.55L319.11-14.55 319.11 0 312.96 0 312.96-26.45 318.31-26.45 318.76-21.85Q320.61-27.1 324.61-27.1L324.61-27.1ZM361.46 0L355.01 0 353.31-8.1 344.41-8.1 342.76 0 336.41 0 345.11-34.55 352.81-34.55 361.46 0ZM348.86-29.7L345.41-12.9 352.36-12.9 348.86-29.7ZM364.36-34.55L370.71-34.55 370.71 0 364.36 0 364.36-34.55Z" opacity="1" transform="matrix(1,0,0,1,0,0)" fill="#4845d2" class="wordmark-text-0" data-fill-palette-color="primary" id="text-0"></path></svg></g></svg></g></svg></g></svg></g><g transform="matrix(1,0,0,1,141.46405337358337,0)"><svg viewBox="0 0 112.59189325283323 113.75402568048946" height="113.75402568048946" width="112.59189325283323"><g><svg xmlns="http://www.w3.org/2000/svg" xmlns:xlink="http://www.w3.org/1999/xlink" version="1.1" x="0" y="0" viewBox="0.9 0.5000001825012079 70.3 71.02561094146249" enable-background="new 0 0 72 72" xml:space="preserve" height="113.75402568048946" width="112.59189325283323" class="icon-icon-0" data-fill-palette-color="accent" id="icon-0"><g fill="#4845d2" data-fill-palette-color="accent"><g fill="#4845d2" data-fill-palette-color="accent"><g fill="#4845d2" data-fill-palette-color="accent"><circle fill="#4845d2" cx="22.5" cy="6.9" r="6.4" data-fill-palette-color="accent"></circle><path fill="#4845d2" d="M43.4 32H36.8C36.5 32 36.2 31.8 36.2 31.4 35.4 23.5 30.2 17.3 23.6 16.4 23.2 16.3 22.9 16.7 22.9 17.1L23.7 31.3C23.7 31.7 23.4 32.1 23 32.1H21.2C20.8 32.1 20.5 31.7 20.5 31.3L21.3 17C21.3 16.6 21 16.3 20.6 16.3 13.9 17 8.5 23.3 7.7 31.3 7.7 31.6 7.4 31.9 7.1 31.9H1.5C1.2 31.9 0.9 32.2 0.9 32.5V35.8C0.9 36.1 1.2 36.4 1.5 36.4H3C3.3 36.4 3.6 36.6 3.6 37L6.6 70.8C6.6 71.1 6.9 71.4 7.2 71.4H37.7C38 71.4 38.3 71.2 38.3 70.8L41.3 37C41.3 36.7 41.6 36.4 41.9 36.4H43.4C43.7 36.4 44 36.1 44 35.8V32.5C44.1 32.2 43.8 32 43.4 32M15.3 31.3C15.3 31.6 15 31.9 14.7 31.9H13.4C13 31.9 12.7 31.5 12.8 31.2 13 29.8 13.5 28.4 14.2 27.2 14.5 26.6 15.4 26.9 15.4 27.5V31.3zM30.6 32H29.3C29 32 28.7 31.7 28.7 31.4V27.6C28.7 27 29.6 26.7 29.9 27.3 30.6 28.5 31 29.8 31.3 31.3 31.3 31.6 31 32 30.6 32" data-fill-palette-color="accent"></path></g><circle fill="#4845d2" cx="61" cy="9.6" r="5.5" data-fill-palette-color="accent"></circle><path fill="#4845d2" d="M62.5 18.9C57.7 18.9 53.9 22.8 53.9 27.5V42.9C53.9 43.5 53.4 43.9 52.9 43.9H45.1C44.5 43.9 44.1 44.4 44.1 44.9V67.9C44.1 69.9 45.7 71.5 47.7 71.5S51.3 69.9 51.3 67.9V52.2C51.3 51.6 51.8 51.2 52.3 51.2H70.2C70.8 51.2 71.2 50.7 71.2 50.2V27.5C71.1 22.7 67.3 18.9 62.5 18.9" data-fill-palette-color="accent"></path></g><path fill="#4845d2" d="M69.1 54.8H58.4C57.4 54.8 56.5 55.5 56.3 56.5 56.1 57.8 57.1 58.8 58.3 58.8H61.5C61.6 58.8 61.7 58.9 61.7 59V69.4C61.7 70.4 62.4 71.3 63.4 71.5 64.7 71.7 65.7 70.7 65.7 69.5V59C65.7 58.9 65.8 58.8 65.9 58.8H69C70 58.8 70.9 58.1 71.1 57.1 71.3 55.8 70.4 54.8 69.1 54.8" data-fill-palette-color="accent"></path></g></svg></g></svg></g><g></g></svg></g><defs></defs></svg><rect width="395.52" height="167.462437081191" fill="none" stroke="none" visibility="hidden"></rect></g></svg></g></svg>